<svg aria-hidden="true" style="position: absolute; width: 0; height: 0; overflow: hidden;" version="1.1" xmlns="http://www.w3.org/2000/svg" xmlns:xlink="http://www.w3.org/1999/xlink">
<defs>
<symbol id="shopping" viewBox="0 0 32 32">
<path d="M9.333 24c-1.467 0-2.653 1.2-2.653 2.667s1.187 2.667 2.653 2.667c1.467 0 2.667-1.2 2.667-2.667s-1.2-2.667-2.667-2.667zM1.333 2.667v2.667h2.667l4.8 10.12-1.8 3.267c-0.213 0.373-0.333 0.813-0.333 1.28 0 1.467 1.2 2.667 2.667 2.667h16v-2.667h-15.44c-0.187 0-0.333-0.147-0.333-0.333l0.040-0.16 1.2-2.173h9.933c1 0 1.88-0.547 2.333-1.373l4.773-8.653c0.107-0.187 0.16-0.413 0.16-0.64 0-0.733-0.6-1.333-1.333-1.333h-19.72l-1.253-2.667h-4.36zM22.667 24c-1.467 0-2.653 1.2-2.653 2.667s1.187 2.667 2.653 2.667c1.467 0 2.667-1.2 2.667-2.667s-1.2-2.667-2.667-2.667z"></path>
</symbol>
<symbol id="person" viewBox="0 0 32 32">
<path d="M16 16c2.947 0 5.333-2.387 5.333-5.333s-2.387-5.333-5.333-5.333c-2.947 0-5.333 2.387-5.333 5.333s2.387 5.333 5.333 5.333zM16 18.667c-3.56 0-10.667 1.787-10.667 5.333v2.667h21.333v-2.667c0-3.547-7.107-5.333-10.667-5.333z"></path>
</symbol>
<symbol id="Group-3" viewBox="0 0 32 32">
<path  d="M32 16c0 8.837-7.163 16-16 16s-16-7.163-16-16c0-8.837 7.163-16 16-16s16 7.163 16 16z"></path>
<path fill="none" stroke="#000" style="stroke: var(--color2, #000)" stroke-linejoin="miter" stroke-linecap="butt" stroke-miterlimit="4" stroke-width="0.8421" d="M17.204 11.489l-0 0-0.788 0.812-0.788-0.812c-1.101-1.139-2.862-1.298-4.024-0.308-1.36 1.161-1.434 3.251-0.215 4.511l5.815-4.204zM17.204 11.489c1.104-1.139 2.862-1.298 4.024-0.308 1.361 1.161 1.434 3.251 0.213 4.512l-0 0-4.77 4.925c-0.143 0.147-0.369 0.147-0.512 0l-4.77-4.925 5.815-4.204z"></path>
</symbol>
<symbol id="menu" viewBox="0 0 32 32">
<path d="M2 6h28v6h-28zM2 14h28v6h-28zM2 22h28v6h-28z"></path>
</symbol>
<symbol id="cross" viewBox="0 0 32 32">
<path d="M31.708 25.708c-0-0-0-0-0-0l-9.708-9.708 9.708-9.708c0-0 0-0 0-0 0.105-0.105 0.18-0.227 0.229-0.357 0.133-0.356 0.057-0.771-0.229-1.057l-4.586-4.586c-0.286-0.286-0.702-0.361-1.057-0.229-0.13 0.048-0.252 0.124-0.357 0.228 0 0-0 0-0 0l-9.708 9.708-9.708-9.708c-0-0-0-0-0-0-0.105-0.104-0.227-0.18-0.357-0.228-0.356-0.133-0.771-0.057-1.057 0.229l-4.586 4.586c-0.286 0.286-0.361 0.702-0.229 1.057 0.049 0.13 0.124 0.252 0.229 0.357 0 0 0 0 0 0l9.708 9.708-9.708 9.708c-0 0-0 0-0 0-0.104 0.105-0.18 0.227-0.229 0.357-0.133 0.355-0.057 0.771 0.229 1.057l4.586 4.586c0.286 0.286 0.702 0.361 1.057 0.229 0.13-0.049 0.252-0.124 0.357-0.229 0-0 0-0 0-0l9.708-9.708 9.708 9.708c0 0 0 0 0 0 0.105 0.105 0.227 0.18 0.357 0.229 0.356 0.133 0.771 0.057 1.057-0.229l4.586-4.586c0.286-0.286 0.362-0.702 0.229-1.057-0.049-0.13-0.124-0.252-0.229-0.357z"></path>
</symbol>
</defs>
</svg>
